<svg width="296" height="350" viewBox="0 0 296 350" fill="none" xmlns="http://www.w3.org/2000/svg">
<path d="M123.069 10.9992C139.615 10.9505 156.163 10.9642 172.71 11.0217C173.886 11.0258 175.144 11.3109 176.223 11.7854C191.827 18.6444 207.426 25.5159 222.97 32.508C225.107 33.469 226.458 33.3601 228.158 31.6437C232.035 27.7282 236.137 24.0316 240.219 20.3254C240.927 19.6825 241.987 19.0565 242.888 19.051C255.057 18.9764 267.227 19.0124 279.396 19.0305C279.639 19.0309 279.882 19.1486 280.281 19.2521C280.321 19.9235 280.395 20.5995 280.395 21.2756C280.407 45.8768 280.394 70.4782 280.457 95.0793C280.461 96.9006 279.917 98.1752 278.617 99.4182C275.391 102.501 272.221 105.653 269.203 108.938C268.366 109.848 267.7 111.321 267.699 112.536C267.665 156.661 267.705 200.786 267.805 244.91C267.81 246.935 267.245 248.3 265.71 249.624C258.35 255.969 251.068 262.403 243.811 268.864C242.651 269.898 241.676 271.173 240.756 272.438C236.28 278.595 231.894 284.819 227.353 290.928C226.74 291.752 225.352 292.629 224.45 292.511C216.678 291.489 210.405 294.4 204.085 298.69C185.487 311.312 166.573 323.467 147.765 335.818C130.805 324.674 113.85 313.528 96.8892 302.391C92.4289 299.462 87.9962 296.487 83.4507 293.696C82.3512 293.02 80.8651 292.777 79.5376 292.709C76.2219 292.539 72.3829 293.599 69.7164 292.256C67.0598 290.918 65.5435 287.277 63.5826 284.605C60.3207 280.16 57.1335 275.661 53.8462 271.236C52.9682 270.054 51.9201 268.967 50.815 267.989C43.8647 261.842 36.9015 255.709 29.8804 249.643C28.3851 248.351 27.6986 247.028 27.7134 244.957C27.8207 229.988 27.7774 215.016 27.7818 200.046C27.7872 170.63 27.7751 141.738 27.8326 112.847C27.8361 111.029 27.3026 109.751 25.9986 108.51C22.7654 105.434 19.617 102.263 16.5464 99.0246C15.8432 98.2828 15.1937 97.1135 15.191 96.1389C15.1211 70.8373 15.1397 45.5353 15.15 20.2336C15.1501 19.9041 15.2424 19.5746 15.3267 19.009C17.3934 19.009 19.3846 19.0088 21.3755 19.009C31.4435 19.0101 41.5122 18.9552 51.5787 19.0803C52.8911 19.0966 54.4598 19.7325 55.4527 20.6027C59.7954 24.4087 63.9984 28.377 68.1861 32.3557C69.2732 33.3885 70.1298 33.6035 71.5943 32.9455C87.381 25.8517 103.203 18.8348 119.043 11.8605C120.277 11.317 121.721 11.0032 123.069 10.9992ZM232.737 11.4641C232.003 12.1503 231.272 12.8393 230.543 13.5305L232.091 11.4572L232.737 11.4641ZM201.377 11.135L202.72 12.1389C201.949 11.8007 201.178 11.4629 200.407 11.1252L201.377 11.135Z" fill="#00E676"/>
<path d="M289.467 217.648C289.475 228.068 289.535 238.227 289.419 248.383C289.405 249.572 288.718 251.077 287.837 251.885C268.289 269.82 248.679 287.689 229.028 305.513C228.228 306.239 226.851 306.9 225.862 306.758C216.662 305.439 209.16 308.546 201.642 313.875C184.872 325.762 167.538 336.853 150.433 348.266C149.565 348.845 148.681 349.399 147.75 350C137.81 343.351 127.934 336.72 118.031 330.128C106.742 322.613 95.444 315.113 84.1017 307.679C83.1559 307.059 81.8504 306.745 80.7027 306.72C76.4241 306.627 71.7158 307.835 67.9818 306.415C64.3392 305.031 61.7106 301.009 58.6025 298.182C41.6952 282.807 24.7896 267.43 7.83819 252.104C6.56408 250.952 5.99677 249.818 6.00484 248.077C6.07295 233.366 6.01825 218.655 6.10617 203.944C6.11254 202.879 6.70209 201.586 7.44344 200.796C10.1972 197.861 13.1959 195.155 15.9468 192.218C16.6835 191.431 17.2456 190.127 17.2485 189.059C17.3126 165.591 17.3127 142.123 17.2065 118.656C17.2007 117.375 16.4603 115.812 15.5527 114.873C12.1486 111.349 8.58373 107.974 4.97025 104.662C3.63341 103.436 3.07304 102.168 3.08361 100.343C3.1744 84.6692 3.20377 68.9946 3.15882 53.3204C3.15483 51.9333 2.85207 50.2808 2.06063 49.2194C0.564963 47.2136 -0.0274789 45.1951 0.000974571 42.7053C0.128071 31.5856 0.0934053 20.4641 0.116735 9.34319C0.118531 8.48704 0.116968 7.63091 0.116968 6.63556C1.14257 6.57856 1.9052 6.49932 2.66786 6.4992C20.0936 6.49663 37.5195 6.52868 54.945 6.46843C56.7605 6.46216 58.0204 7.02061 59.3015 8.27723C63.2386 12.1387 67.3645 15.8076 71.3038 19.667C72.4714 20.8108 73.3795 20.7436 74.7435 20.1398C88.9738 13.8412 103.213 7.56075 117.507 1.40938C119.443 0.576154 121.694 0.115772 123.803 0.10005C140.177 -0.021932 156.552 -0.0171214 172.927 0.0339003C174.355 0.0383579 175.872 0.446451 177.195 1.01968C191.799 7.34735 206.387 13.7094 220.929 20.1766C222.436 20.8468 223.22 20.5905 224.286 19.5507C228.298 15.6392 232.351 11.7669 236.494 7.99557C237.31 7.25291 238.59 6.62433 239.661 6.61695C257.874 6.49142 276.088 6.47179 294.302 6.43462C294.559 6.43409 294.817 6.50785 295.452 6.60425C295.452 7.40919 295.45 8.25129 295.452 9.09338C295.481 20.9148 295.554 32.7365 295.477 44.5572C295.469 45.8177 294.843 47.2813 294.044 48.283C292.695 49.9726 292.263 51.7042 292.278 53.8295C292.392 69.4157 292.436 85.0028 292.377 100.589C292.372 101.805 291.711 103.299 290.858 104.183C287.272 107.898 283.428 111.363 279.841 115.077C278.992 115.957 278.335 117.444 278.331 118.655C278.256 142.035 278.265 165.415 278.373 188.795C278.379 190.087 279.107 191.629 279.99 192.615C282.439 195.351 285.079 197.929 287.783 200.417C289.138 201.663 289.591 202.985 289.537 204.78C289.411 208.979 289.478 213.183 289.467 217.648ZM27.7816 200.046C27.7772 215.017 27.8205 229.987 27.7132 244.957C27.6984 247.028 28.3846 248.351 29.88 249.643C36.9013 255.709 43.8649 261.842 50.8154 267.99C51.9205 268.967 52.9682 270.054 53.8462 271.236C57.1334 275.661 60.3206 280.16 63.5825 284.605C65.5435 287.276 67.0595 290.917 69.7162 292.256C72.3827 293.599 76.2214 292.539 79.5373 292.709C80.8648 292.777 82.351 293.02 83.4506 293.695C87.9961 296.487 92.4288 299.462 96.8892 302.391C113.85 313.528 130.805 324.673 147.765 335.817C166.573 323.467 185.488 311.312 204.085 298.689C210.406 294.399 216.678 291.488 224.45 292.51C225.351 292.629 226.74 291.753 227.353 290.928C231.895 284.819 236.28 278.595 240.757 272.437C241.677 271.172 242.651 269.898 243.811 268.865C251.068 262.403 258.35 255.969 265.709 249.624C267.245 248.3 267.81 246.936 267.805 244.91C267.705 200.786 267.665 156.661 267.699 112.537C267.7 111.321 268.365 109.849 269.202 108.938C272.22 105.653 275.391 102.501 278.617 99.4179C279.918 98.1749 280.461 96.901 280.457 95.0797C280.394 70.4785 280.407 45.8771 280.395 21.2758C280.395 20.5996 280.321 19.9235 280.281 19.2519C279.882 19.1484 279.639 19.0306 279.396 19.0302C267.227 19.0122 255.057 18.9767 242.888 19.0512C241.987 19.0567 240.928 19.682 240.219 20.3249C236.137 24.0313 232.035 27.7281 228.157 31.6439C226.458 33.3603 225.107 33.4691 222.97 32.5082C207.426 25.5161 191.827 18.6443 176.223 11.7852C175.144 11.3107 173.886 11.026 172.709 11.0219C156.163 10.9644 139.616 10.9509 123.069 10.9997C121.721 11.0036 120.278 11.3173 119.043 11.8609C103.203 18.8352 87.3813 25.8519 71.5945 32.9457C70.1299 33.6038 69.273 33.3887 68.1858 32.3558C63.998 28.3771 59.7953 24.4088 55.4525 20.6027C54.4596 19.7326 52.8915 19.0966 51.579 19.0803C41.5124 18.9552 31.4435 19.0099 21.3754 19.0088C19.3843 19.0085 17.3933 19.0087 15.3265 19.0087C15.2422 19.5746 15.1502 19.9041 15.15 20.2337C15.1397 45.5355 15.1214 70.8372 15.1913 96.1388C15.194 97.1134 15.8428 98.2832 16.5461 99.025C19.6166 102.264 22.7656 105.433 25.9987 108.51C27.3029 109.751 27.8364 111.029 27.8328 112.847C27.7753 141.738 27.787 170.63 27.7816 200.046Z" fill="#181818"/>
<path d="M205.662 87.6817C206.13 87.4088 206.419 87.189 206.744 87.0765C214.298 84.4647 217.545 78.8297 219.102 71.2377C220.766 63.1268 223.468 55.2239 225.859 47.2731C226.185 46.19 227.14 44.9131 228.135 44.472C242.038 38.3082 255.998 32.272 269.949 26.2189C270.399 26.0239 270.914 25.98 271.745 25.7839C271.248 31.7584 270.84 37.5038 270.28 43.2344C268.45 61.9571 266.432 80.6629 264.804 99.4028C264.454 103.435 262.918 105.639 259.476 107.649C229.348 125.247 199.331 143.033 169.317 160.824C168.384 161.377 167.552 162.488 167.176 163.522C165.864 167.123 165.585 171.441 163.366 174.273C161.203 177.033 156.886 177.984 153.972 180.304C149.707 183.7 146.042 183.675 141.787 180.275C138.813 177.898 134.465 176.896 132.185 174.096C129.971 171.376 129.743 167.095 128.366 163.609C127.878 162.373 126.77 161.131 125.615 160.445C95.0956 142.316 64.542 124.244 33.9546 106.23C32.123 105.151 31.1938 103.946 30.9945 101.795C29.0733 81.0564 27.0588 60.327 25.0853 39.5936C24.6552 35.0751 24.2819 30.5511 23.8415 25.5664C24.9824 25.9517 25.7751 26.1547 26.5147 26.4787C40.0473 32.408 53.5893 38.3168 67.0716 44.3588C68.1533 44.8436 69.2552 46.1335 69.602 47.2757C72.877 58.0622 75.9466 68.9111 79.2117 79.7008C79.5706 80.8868 80.5665 82.1899 81.6326 82.8061C103.134 95.2358 124.699 107.555 146.21 119.969C147.623 120.784 148.548 120.453 149.755 119.759C168.325 109.082 186.914 98.4371 205.662 87.6817Z" fill="#181818"/>
<path d="M173.176 15.0544C174.943 14.7932 175.81 15.4853 176.459 16.8647C178.061 20.2659 179.646 23.6899 181.513 26.9468C182.952 29.4562 183.163 31.9258 182.769 34.7199C179.975 54.5581 177.291 74.4117 174.523 94.2536C174.405 95.1 174.03 96.2467 173.396 96.6343C164.97 101.787 156.477 106.828 147.972 111.914C139.587 106.881 131.25 101.913 122.975 96.8457C122.231 96.3901 121.521 95.3406 121.401 94.4824C118.548 74.0331 115.749 53.5762 113.055 33.1055C112.854 31.5798 113.221 29.8103 113.841 28.3783C115.508 24.5309 117.52 20.8343 119.26 17.0167C119.951 15.5012 120.91 15.0938 122.507 15.0965C139.318 15.1251 156.129 15.0792 173.176 15.0544Z" fill="#181818"/>
<path d="M110.172 301.656C103.742 297.402 97.423 293.321 91.2369 289.048C90.1898 288.325 89.2122 286.838 89.052 285.594C86.784 267.985 84.666 250.356 82.5049 232.733C81.3871 223.618 80.2546 214.504 79.1341 205.39C79.0735 204.897 79.0612 204.398 79 203.524C83.5267 206.449 87.8345 209.088 91.9666 211.977C93.5691 213.098 94.8285 213.237 96.4239 212.22C102.905 208.088 109.459 204.07 115.897 199.872C121.903 195.956 127.796 191.866 133.739 187.854C134.172 187.561 134.58 187.147 135.06 187.022C136.63 186.616 143.02 191.832 143.024 193.483C143.068 210.023 143.083 226.564 143.182 243.105C143.191 244.64 142.714 245.473 141.36 246.158C136.447 248.641 131.546 251.158 126.747 253.852C125.781 254.394 124.896 255.675 124.634 256.774C123.521 261.428 122.656 266.142 121.612 271.271C117.076 267.939 112.642 264.869 108.45 261.499C107.069 260.388 106.076 260.371 105.138 261.471C104.124 262.66 104.12 263.999 105.614 265.058C110.037 268.194 114.465 271.325 118.81 274.567C119.505 275.085 120.3 276.26 120.171 276.974C118.516 286.15 116.702 295.298 114.871 304.744C113.209 303.654 111.768 302.71 110.172 301.656Z" fill="#181818"/>
<path d="M261.952 159.845C263.027 165.463 260.595 168.465 256.015 171.274C238.722 181.883 221.73 192.981 204.578 203.821C203.929 204.231 202.553 204.226 201.915 203.807C190.882 196.549 179.945 189.145 168.896 181.911C167.031 180.691 166.789 179.703 167.663 177.726C169.21 174.227 170.409 170.574 171.825 166.794C175.502 168.342 179.085 169.709 182.533 171.356C184.655 172.369 186.469 172.38 188.713 171.564C198.323 168.071 208.037 164.863 217.674 161.443C220.311 160.508 222.797 159.538 225.225 162.303C227.285 159.091 228.889 155.953 231.081 153.301C236.034 147.31 238.485 140.495 238.436 132.822C238.4 127.178 240.572 123.247 245.95 121.158C247.367 120.607 248.608 119.602 250.253 118.611C250.321 120.093 250.372 121.176 250.44 122.654C255.005 121.159 257.629 117.259 261.952 114.863C261.952 129.981 261.952 144.782 261.952 159.845Z" fill="#181818"/>
<path d="M57.5829 135.295C57.746 141.359 59.2842 146.613 63.046 151.285C65.7157 154.6 67.8045 158.383 70.3769 162.299C73.4296 158.815 76.6054 161.078 79.6832 162.118C89.2072 165.336 98.6731 168.725 108.193 171.956C109.146 172.279 110.425 172.266 111.361 171.908C115.502 170.319 119.574 168.548 123.866 166.761C125.449 171.043 127.063 175.178 128.427 179.394C128.601 179.93 127.628 181.131 126.911 181.616C117.636 187.89 108.303 194.078 99.004 200.317C96.8289 201.776 94.7256 203.343 92.6104 204.845C73.3372 192.538 54.0926 180.264 34.8892 167.925C34.2362 167.506 33.6232 166.444 33.6199 165.678C33.5479 148.873 33.565 132.068 33.565 114.958C37.7382 117.104 40.4378 121.055 44.9413 122.762C45.0394 121.235 45.1107 120.124 45.2103 118.573C48.8483 120.751 52.3084 122.734 55.6462 124.905C56.2121 125.273 56.3813 126.43 56.5109 127.257C56.9169 129.849 57.2164 132.458 57.5829 135.295Z" fill="#181818"/>
<path d="M34.0536 218.15C34.0539 203.75 34.0539 189.614 34.0539 175C35.4665 175.917 36.4677 176.557 37.4582 177.212C49.2703 185.029 61.102 192.816 72.8561 200.719C73.9411 201.449 75.1372 202.856 75.2586 204.052C78.0307 231.371 80.6608 258.704 83.3138 286.034C83.3724 286.639 83.389 287.248 83.4405 288.111C82.9367 287.876 82.5507 287.781 82.2734 287.554C66.849 274.91 51.4472 262.239 35.9947 249.63C34.5809 248.477 33.9791 247.308 34.0006 245.448C34.1044 236.437 34.0511 227.424 34.0536 218.15ZM46.9827 200.549C46.9823 198.799 46.9822 197.049 46.9815 195.299C46.9796 190.737 46.2339 189.737 41.4583 188.113C41.4583 188.859 41.4588 189.532 41.4583 190.204C41.4447 207.18 41.657 224.16 41.2667 241.127C41.1623 245.663 43.5835 247.275 46.9825 249.541C46.9825 233.055 46.9825 217.065 46.9827 200.549Z" fill="#181818"/>
<path d="M245.735 185.424C250.895 181.968 255.9 178.62 261.313 175C261.404 176.204 261.508 176.934 261.508 177.663C261.513 200.427 261.522 223.19 261.452 245.954C261.449 246.93 260.976 248.234 260.26 248.83C244.726 261.774 229.126 274.638 213.537 287.515C213.224 287.773 212.877 287.988 212 288.612C212.533 282.97 212.987 277.894 213.495 272.824C215.163 256.194 216.871 239.568 218.518 222.936C219.148 216.579 219.582 210.201 220.294 203.854C220.405 202.859 221.322 201.685 222.202 201.088C229.952 195.839 237.777 190.702 245.735 185.424ZM254.167 236.804C254.167 220.613 254.167 204.422 254.167 188.101C249.891 189.515 248.426 191.781 248.513 196.014C248.854 212.704 248.732 229.404 248.78 246.1C248.783 247.085 248.781 248.07 248.781 249.131C253.302 247.315 255.022 244.346 254.195 239.946C254.036 239.101 254.169 238.202 254.167 236.804Z" fill="#181818"/>
<path d="M145.588 321.55C138.239 316.951 131.089 312.399 123.848 307.998C122.151 306.967 121.782 305.972 122.156 304.02C125.033 289.006 127.795 273.97 130.493 258.924C130.779 257.325 131.489 256.57 132.881 255.915C137.306 253.834 141.624 251.526 146.065 249.481C146.997 249.052 148.454 248.99 149.366 249.414C154.038 251.584 158.649 253.896 163.185 256.34C164.092 256.829 165.003 258.025 165.192 259.03C168.054 274.31 170.818 289.61 173.503 304.923C173.637 305.685 173.089 306.982 172.447 307.399C164.974 312.254 157.382 316.927 149.922 321.8C148.295 322.862 147.106 322.79 145.588 321.55Z" fill="#181818"/>
<path d="M177.364 268.339C176.381 269.072 175.55 269.691 174.34 270.59C173.334 265.592 172.511 260.915 171.387 256.31C171.083 255.068 170.11 253.625 169.026 253C164.49 250.386 159.822 247.99 155.14 245.64C153.635 244.885 152.997 244.043 153.003 242.257C153.052 225.901 152.955 209.544 153.029 193.188C153.033 192.144 153.84 190.745 154.711 190.121C160.553 185.937 160.578 186.011 166.551 190.035C175.684 196.19 184.816 202.347 194.005 208.418C195.6 209.472 196.058 210.497 195.745 212.451C193.281 227.808 191.008 243.197 188.536 258.553C188.332 259.814 187.329 261.207 186.292 262.025C183.483 264.24 180.456 266.178 177.364 268.339Z" fill="#181818"/>
<path d="M185.639 57.1693C187.128 45.7564 188.596 34.5761 190.116 23C191.127 23.39 191.984 23.6805 192.808 24.0449C201.76 28.0021 210.699 31.9897 219.664 35.9167C221.037 36.5178 221.635 37.0794 221.282 38.8188C218.791 51.0654 216.486 63.3496 214.018 75.601C213.789 76.7411 213.11 78.1826 212.191 78.7321C201.623 85.0469 190.968 91.2161 180 97.6204C181.889 84.0974 183.754 70.7497 185.639 57.1693Z" fill="#181818"/>
<path d="M106.933 92.8685C99.0556 88.2984 91.3127 83.877 83.6583 79.3072C82.6942 78.7316 81.7691 77.4623 81.5471 76.368C78.957 63.6031 76.5044 50.8102 74.0228 38.0234C73.9752 37.7781 74.0169 37.5155 74.0169 37.0355C84.2224 32.4285 94.4576 27.8082 105.109 23C108.554 48.0238 111.937 72.6012 115.418 97.8834C112.248 96.0128 109.672 94.4922 106.933 92.8685Z" fill="#181818"/>
<path d="M176.11 289.197C175.358 285.103 174.573 281.242 174.015 277.349C173.904 276.572 174.425 275.364 175.057 274.877C179.214 271.673 183.486 268.618 187.712 265.503C190.003 263.815 191.152 261.627 191.646 258.722C194.108 244.236 196.79 229.787 199.44 215.333C199.587 214.535 199.941 213.499 200.545 213.104C205.138 210.102 209.819 207.232 214.985 204C214.416 209.038 213.942 213.579 213.387 218.109C211.193 236.001 208.977 253.89 206.763 271.78C206.172 276.557 205.599 281.336 204.922 286.101C204.8 286.966 204.451 288.113 203.811 288.544C195.696 294.011 187.508 299.37 178.982 304.992C178.011 299.636 177.084 294.527 176.11 289.197Z" fill="#181818"/>
</svg>
