<svg width="315" height="373" viewBox="0 0 315 373" fill="none" xmlns="http://www.w3.org/2000/svg">
<path fill-rule="evenodd" clip-rule="evenodd" d="M133.069 20.9992C149.615 20.9505 166.163 20.9642 182.71 21.0217C183.886 21.0258 185.144 21.3109 186.223 21.7854C201.827 28.6444 217.426 35.5159 232.97 42.508C235.107 43.469 236.458 43.3601 238.158 41.6437C242.035 37.7282 246.137 34.0316 250.219 30.3254C250.927 29.6825 251.987 29.0565 252.888 29.051C265.057 28.9764 277.227 29.0124 289.396 29.0305C289.639 29.0309 289.882 29.1486 290.281 29.2521C290.321 29.9235 290.395 30.5995 290.395 31.2756C290.407 55.8768 290.394 80.4782 290.457 105.079C290.461 106.901 289.917 108.175 288.617 109.418C285.391 112.501 282.221 115.653 279.203 118.938C278.366 119.848 277.7 121.321 277.699 122.536C277.665 166.661 277.705 210.786 277.805 254.91C277.81 256.935 277.245 258.3 275.71 259.624C268.35 265.969 261.068 272.403 253.811 278.864C252.651 279.898 251.676 281.173 250.756 282.438C246.28 288.595 241.894 294.819 237.353 300.928C236.74 301.752 235.352 302.629 234.45 302.511C226.678 301.489 220.405 304.4 214.085 308.69C195.487 321.312 176.573 333.467 157.765 345.818C140.805 334.674 123.85 323.528 106.889 312.391C102.429 309.462 97.9962 306.487 93.4507 303.695C92.3512 303.02 90.8651 302.777 89.5376 302.709C86.2219 302.539 82.3829 303.599 79.7164 302.256C77.0598 300.918 75.5435 297.277 73.5826 294.605C70.3207 290.16 67.1335 285.661 63.8462 281.236C62.9682 280.054 61.9201 278.967 60.815 277.989C53.8647 271.842 46.9015 265.709 39.8804 259.643C38.3851 258.351 37.6986 257.028 37.7134 254.957C37.8207 239.988 37.7774 225.016 37.7818 210.046C37.7872 180.63 37.7751 151.738 37.8326 122.847C37.8361 121.029 37.3026 119.751 35.9986 118.51C32.7654 115.434 29.617 112.263 26.5464 109.025C25.8432 108.283 25.1937 107.114 25.191 106.139C25.1211 80.8373 25.1397 55.5353 25.15 30.2336C25.1501 29.9041 25.2424 29.5746 25.3267 29.009C27.3934 29.009 29.3846 29.0088 31.3755 29.009C41.4435 29.0101 51.5122 28.9552 61.5787 29.0803C62.8911 29.0966 64.4598 29.7325 65.4527 30.6027C69.7954 34.4087 73.9984 38.377 78.1861 42.3557C79.2732 43.3885 80.1298 43.6035 81.5943 42.9455C97.381 35.8517 113.203 28.8348 129.043 21.8605C130.277 21.317 131.721 21.0032 133.069 20.9992ZM242.737 21.4641C242.003 22.1503 241.272 22.8393 240.543 23.5305L242.091 21.4572L242.737 21.4641ZM211.377 21.135L212.72 22.1389C211.949 21.8007 211.178 21.4629 210.407 21.1252L211.377 21.135Z" fill="#00E676"/>
<path d="M308.557 231.951C308.565 243.056 308.63 253.882 308.505 264.705C308.491 265.973 307.758 267.577 306.82 268.437C285.982 287.551 265.079 306.594 244.132 325.589C243.279 326.363 241.812 327.067 240.757 326.916C230.951 325.511 222.954 328.822 214.94 334.501C197.064 347.169 178.587 358.99 160.353 371.152C159.429 371.769 158.486 372.36 157.494 373C146.898 365.914 136.371 358.847 125.815 351.822C113.782 343.814 101.738 335.82 89.6481 327.898C88.6399 327.238 87.2483 326.902 86.0249 326.876C81.4641 326.777 76.4453 328.064 72.4651 326.551C68.5822 325.076 65.7803 320.789 62.4673 317.777C44.4449 301.392 26.4244 285.004 8.35511 268.671C6.99697 267.443 6.39225 266.235 6.40085 264.38C6.47345 248.702 6.41515 233.024 6.50886 217.346C6.51565 216.211 7.14408 214.833 7.93433 213.991C10.8697 210.863 14.0662 207.98 16.9985 204.849C17.7838 204.011 18.3829 202.621 18.386 201.482C18.4544 176.473 18.4545 151.463 18.3412 126.453C18.335 125.088 17.5458 123.423 16.5784 122.422C12.9498 118.666 9.14981 115.069 5.29804 111.539C3.87303 110.233 3.2757 108.882 3.28697 106.937C3.38374 90.2331 3.41505 73.5285 3.36714 56.8243C3.36289 55.346 3.04016 53.5849 2.19652 52.4538C0.602222 50.3162 -0.0292911 48.1651 0.00103884 45.5117C0.136518 33.6613 0.0995652 21.8088 0.124434 9.95717C0.126348 9.04476 0.124682 8.13237 0.124682 7.07161C1.21792 7.01086 2.03085 6.92641 2.8438 6.92629C21.4187 6.92355 39.9938 6.9577 58.5685 6.8935C60.5038 6.88682 61.8467 7.48197 63.2124 8.82116C67.4091 12.9364 71.8071 16.8464 76.0062 20.9594C77.2508 22.1784 78.2187 22.1067 79.6727 21.4633C94.8414 14.7508 110.019 8.0576 125.256 1.502C127.32 0.614015 129.719 0.12338 131.968 0.106625C149.422 -0.0233732 166.877 -0.0182465 184.331 0.036128C185.854 0.0408786 187.471 0.475789 188.881 1.08669C204.447 7.83017 219.998 14.6103 235.499 21.5025C237.105 22.2167 237.941 21.9436 239.078 20.8354C243.354 16.6669 247.675 12.5402 252.091 8.521C252.96 7.72953 254.325 7.05964 255.467 7.05178C274.881 6.918 294.296 6.89708 313.711 6.85746C313.985 6.8569 314.26 6.93551 314.936 7.03824C314.936 7.89608 314.934 8.79352 314.936 9.69094C314.968 22.2892 315.046 34.8878 314.963 47.4853C314.955 48.8286 314.288 50.3884 313.435 51.4559C311.997 53.2566 311.537 55.1019 311.553 57.3668C311.675 73.9773 311.721 90.5887 311.658 107.199C311.653 108.495 310.949 110.087 310.039 111.029C306.217 114.988 302.119 118.681 298.296 122.64C297.391 123.577 296.691 125.162 296.686 126.452C296.606 151.368 296.616 176.285 296.731 201.201C296.737 202.578 297.514 204.222 298.455 205.273C301.066 208.188 303.879 210.936 306.762 213.587C308.206 214.915 308.689 216.324 308.631 218.237C308.497 222.712 308.569 227.192 308.557 231.951ZM29.6138 213.192C29.6091 229.146 29.6553 245.101 29.5409 261.054C29.525 263.262 30.2565 264.671 31.8505 266.048C39.3349 272.512 46.7577 279.049 54.1666 285.6C55.3445 286.642 56.4613 287.8 57.3972 289.06C60.9013 293.776 64.2987 298.571 67.7757 303.307C69.866 306.155 71.482 310.035 74.3138 311.461C77.1563 312.893 81.248 311.763 84.7826 311.944C86.1977 312.017 87.7819 312.276 88.954 312.995C93.7993 315.97 98.5244 319.141 103.279 322.262C121.358 334.131 139.431 346.009 157.51 357.885C177.559 344.723 197.72 331.769 217.544 318.317C224.282 313.745 230.968 310.643 239.252 311.733C240.213 311.859 241.693 310.925 242.347 310.046C247.188 303.536 251.862 296.902 256.634 290.34C257.615 288.992 258.654 287.634 259.89 286.533C267.626 279.647 275.388 272.79 283.232 266.028C284.87 264.617 285.471 263.163 285.466 261.005C285.36 213.98 285.317 166.956 285.353 119.932C285.354 118.637 286.064 117.067 286.956 116.097C290.173 112.596 293.553 109.237 296.992 105.951C298.378 104.626 298.957 103.269 298.952 101.328C298.885 75.1099 298.9 48.8919 298.887 22.6739C298.887 21.9533 298.807 21.2327 298.765 20.5171C298.339 20.4067 298.081 20.2812 297.822 20.2808C284.85 20.2616 271.878 20.2237 258.906 20.3032C257.946 20.309 256.817 20.9753 256.062 21.6605C251.71 25.6105 247.337 29.5503 243.204 33.7234C241.392 35.5525 239.952 35.6685 237.675 34.6444C221.105 27.1928 204.478 19.8695 187.845 12.5596C186.694 12.054 185.353 11.7505 184.099 11.7462C166.461 11.6849 148.823 11.6706 131.185 11.7225C129.749 11.7267 128.21 12.061 126.894 12.6403C110.009 20.073 93.144 27.5507 76.316 35.1107C74.7549 35.812 73.8414 35.5828 72.6825 34.482C68.2186 30.2418 63.7387 26.0128 59.1095 21.9566C58.0511 21.0293 56.3796 20.3515 54.9806 20.3341C44.2501 20.2009 33.5172 20.2591 22.785 20.2579C20.6627 20.2577 18.5404 20.2579 16.3373 20.2579C16.2474 20.8609 16.1493 21.2121 16.1491 21.5634C16.1382 48.5278 16.1186 75.4923 16.1931 102.456C16.196 103.495 16.8876 104.742 17.6373 105.532C20.9103 108.984 24.2669 112.362 27.7133 115.641C29.1034 116.963 29.6722 118.326 29.6683 120.263C29.6071 151.053 29.6195 181.843 29.6138 213.192Z" fill="#00E676"/>
<path d="M299.467 227.648C299.475 238.068 299.535 248.227 299.419 258.383C299.405 259.572 298.718 261.077 297.837 261.885C278.289 279.82 258.679 297.689 239.028 315.513C238.228 316.239 236.851 316.9 235.862 316.758C226.662 315.439 219.16 318.546 211.642 323.875C194.872 335.762 177.538 346.853 160.433 358.266C159.565 358.845 158.681 359.399 157.75 360C147.81 353.351 137.934 346.72 128.031 340.128C116.743 332.613 105.444 325.113 94.1017 317.679C93.1559 317.059 91.8504 316.745 90.7027 316.72C86.4241 316.627 81.7158 317.835 77.9818 316.415C74.3392 315.031 71.7106 311.009 68.6025 308.182C51.6952 292.807 34.7896 277.43 17.8382 262.104C16.5641 260.952 15.9968 259.818 16.0048 258.077C16.073 243.366 16.0183 228.655 16.1062 213.944C16.1125 212.879 16.7021 211.586 17.4434 210.796C20.1972 207.861 23.1959 205.155 25.9468 202.218C26.6835 201.431 27.2456 200.127 27.2485 199.059C27.3126 175.591 27.3127 152.123 27.2065 128.656C27.2007 127.375 26.4603 125.812 25.5527 124.873C22.1486 121.349 18.5837 117.974 14.9703 114.662C13.6334 113.436 13.073 112.168 13.0836 110.343C13.1744 94.6692 13.2038 78.9946 13.1588 63.3204C13.1548 61.9333 12.8521 60.2808 12.0606 59.2194C10.565 57.2136 9.97252 55.1951 10.001 52.7053C10.1281 41.5856 10.0934 30.4641 10.1167 19.3432C10.1185 18.487 10.117 17.6309 10.117 16.6356C11.1426 16.5786 11.9052 16.4993 12.6679 16.4992C30.0936 16.4966 47.5195 16.5287 64.945 16.4684C66.7605 16.4622 68.0204 17.0206 69.3015 18.2772C73.2386 22.1387 77.3645 25.8076 81.3038 29.667C82.4714 30.8108 83.3795 30.7436 84.7435 30.1398C98.9738 23.8412 113.213 17.5607 127.507 11.4094C129.443 10.5762 131.694 10.1158 133.803 10.1001C150.177 9.97807 166.552 9.98288 182.927 10.0339C184.355 10.0384 185.872 10.4465 187.195 11.0197C201.799 17.3473 216.387 23.7094 230.929 30.1766C232.436 30.8468 233.22 30.5905 234.286 29.5507C238.298 25.6392 242.351 21.7669 246.494 17.9956C247.31 17.2529 248.59 16.6243 249.661 16.617C267.874 16.4914 286.088 16.4718 304.302 16.4346C304.559 16.4341 304.817 16.5078 305.452 16.6042C305.452 17.4092 305.45 18.2513 305.452 19.0934C305.481 30.9148 305.554 42.7365 305.477 54.5572C305.469 55.8177 304.843 57.2813 304.044 58.283C302.695 59.9726 302.263 61.7042 302.278 63.8295C302.392 79.4157 302.436 95.0028 302.377 110.589C302.372 111.805 301.711 113.299 300.858 114.183C297.272 117.898 293.428 121.363 289.841 125.077C288.992 125.957 288.335 127.444 288.331 128.655C288.256 152.035 288.265 175.415 288.373 198.795C288.379 200.087 289.107 201.629 289.99 202.615C292.439 205.351 295.079 207.929 297.783 210.417C299.138 211.663 299.591 212.985 299.537 214.78C299.411 218.979 299.478 223.183 299.467 227.648ZM37.7816 210.046C37.7772 225.017 37.8205 239.987 37.7132 254.957C37.6984 257.028 38.3846 258.351 39.88 259.643C46.9013 265.709 53.8649 271.842 60.8154 277.99C61.9205 278.967 62.9682 280.054 63.8461 281.236C67.1334 285.661 70.3206 290.16 73.5825 294.605C75.5435 297.276 77.0595 300.917 79.7161 302.256C82.3827 303.599 86.2214 302.539 89.5373 302.709C90.8648 302.777 92.351 303.02 93.4506 303.695C97.9961 306.487 102.429 309.462 106.889 312.391C123.85 323.528 140.805 334.673 157.765 345.817C176.573 333.467 195.488 321.312 214.085 308.689C220.406 304.399 226.678 301.488 234.45 302.51C235.351 302.629 236.74 301.753 237.353 300.928C241.895 294.819 246.28 288.595 250.757 282.437C251.677 281.172 252.651 279.898 253.811 278.865C261.068 272.403 268.35 265.969 275.709 259.624C277.245 258.3 277.81 256.936 277.805 254.91C277.705 210.786 277.665 166.661 277.699 122.537C277.7 121.321 278.366 119.849 279.202 118.938C282.22 115.653 285.391 112.501 288.617 109.418C289.918 108.175 290.461 106.901 290.457 105.08C290.394 80.4785 290.407 55.8771 290.395 31.2758C290.395 30.5996 290.321 29.9235 290.281 29.2519C289.882 29.1484 289.639 29.0306 289.396 29.0302C277.227 29.0122 265.057 28.9767 252.888 29.0512C251.987 29.0567 250.928 29.682 250.219 30.3249C246.137 34.0313 242.035 37.7281 238.157 41.6439C236.458 43.3603 235.107 43.4691 232.97 42.5082C217.426 35.5161 201.827 28.6443 186.223 21.7852C185.144 21.3107 183.886 21.026 182.709 21.0219C166.163 20.9644 149.616 20.9509 133.069 20.9997C131.721 21.0036 130.278 21.3173 129.043 21.8609C113.203 28.8352 97.3813 35.8519 81.5945 42.9457C80.1299 43.6038 79.273 43.3887 78.1858 42.3558C73.998 38.3771 69.7953 34.4088 65.4525 30.6027C64.4596 29.7326 62.8915 29.0966 61.579 29.0803C51.5124 28.9552 41.4435 29.0099 31.3754 29.0088C29.3843 29.0085 27.3933 29.0087 25.3265 29.0087C25.2422 29.5746 25.1502 29.9041 25.15 30.2337C25.1397 55.5355 25.1214 80.8372 25.1913 106.139C25.194 107.113 25.8428 108.283 26.5461 109.025C29.6166 112.264 32.7656 115.433 35.9987 118.51C37.3029 119.751 37.8364 121.029 37.8328 122.847C37.7753 151.738 37.787 180.63 37.7816 210.046Z" fill="#181818"/>
<path d="M215.662 97.6817C216.13 97.4088 216.419 97.189 216.744 97.0765C224.298 94.4647 227.545 88.8297 229.102 81.2377C230.766 73.1268 233.468 65.2239 235.859 57.2731C236.185 56.19 237.14 54.9131 238.135 54.472C252.038 48.3082 265.998 42.272 279.949 36.2189C280.399 36.0239 280.914 35.98 281.745 35.7839C281.248 41.7584 280.84 47.5038 280.28 53.2344C278.45 71.9571 276.432 90.6629 274.804 109.403C274.454 113.435 272.918 115.639 269.476 117.649C239.348 135.247 209.331 153.033 179.317 170.824C178.384 171.377 177.552 172.488 177.176 173.522C175.864 177.123 175.585 181.441 173.366 184.273C171.203 187.033 166.886 187.984 163.972 190.304C159.707 193.7 156.042 193.675 151.787 190.275C148.813 187.898 144.465 186.896 142.185 184.096C139.971 181.376 139.743 177.095 138.366 173.609C137.878 172.373 136.77 171.131 135.615 170.445C105.096 152.316 74.542 134.244 43.9546 116.23C42.123 115.151 41.1938 113.946 40.9945 111.795C39.0733 91.0564 37.0588 70.327 35.0853 49.5936C34.6552 45.0751 34.2819 40.5511 33.8415 35.5664C34.9824 35.9517 35.7751 36.1547 36.5147 36.4787C50.0473 42.408 63.5893 48.3168 77.0716 54.3588C78.1533 54.8436 79.2552 56.1335 79.602 57.2757C82.877 68.0622 85.9466 78.9111 89.2117 89.7008C89.5706 90.8868 90.5665 92.1899 91.6326 92.8061C113.134 105.236 134.699 117.555 156.21 129.969C157.623 130.784 158.548 130.453 159.755 129.759C178.325 119.082 196.914 108.437 215.662 97.6817Z" fill="#181818"/>
<path d="M183.176 25.0544C184.943 24.7932 185.81 25.4853 186.459 26.8647C188.061 30.2659 189.646 33.6899 191.513 36.9468C192.952 39.4562 193.163 41.9258 192.769 44.7199C189.975 64.5581 187.291 84.4117 184.523 104.254C184.405 105.1 184.03 106.247 183.396 106.634C174.97 111.787 166.477 116.828 157.972 121.914C149.587 116.881 141.25 111.913 132.975 106.846C132.231 106.39 131.521 105.341 131.401 104.482C128.548 84.0331 125.749 63.5762 123.055 43.1055C122.854 41.5798 123.221 39.8103 123.841 38.3783C125.508 34.5309 127.52 30.8343 129.26 27.0167C129.951 25.5012 130.91 25.0938 132.507 25.0965C149.318 25.1251 166.129 25.0792 183.176 25.0544Z" fill="#181818"/>
<path d="M120.172 311.656C113.742 307.402 107.423 303.321 101.237 299.048C100.19 298.325 99.2122 296.838 99.052 295.594C96.784 277.985 94.666 260.356 92.5049 242.733C91.3871 233.618 90.2546 224.504 89.1341 215.39C89.0735 214.897 89.0612 214.398 89 213.524C93.5267 216.449 97.8345 219.088 101.967 221.977C103.569 223.098 104.828 223.237 106.424 222.22C112.905 218.088 119.459 214.07 125.897 209.872C131.903 205.956 137.796 201.866 143.739 197.854C144.172 197.561 144.58 197.147 145.06 197.022C146.63 196.616 153.02 201.832 153.024 203.483C153.068 220.023 153.083 236.564 153.182 253.105C153.191 254.64 152.714 255.473 151.36 256.158C146.447 258.641 141.546 261.158 136.747 263.852C135.781 264.394 134.896 265.675 134.634 266.774C133.521 271.428 132.656 276.142 131.612 281.271C127.076 277.939 122.642 274.869 118.45 271.499C117.069 270.388 116.076 270.371 115.138 271.471C114.124 272.66 114.12 273.999 115.614 275.058C120.037 278.194 124.465 281.325 128.81 284.567C129.505 285.085 130.3 286.26 130.171 286.974C128.516 296.15 126.702 305.298 124.871 314.744C123.209 313.654 121.768 312.71 120.172 311.656Z" fill="#181818"/>
<path d="M271.952 169.845C273.027 175.463 270.595 178.465 266.015 181.274C248.722 191.883 231.73 202.981 214.578 213.821C213.929 214.231 212.553 214.226 211.915 213.807C200.882 206.549 189.945 199.145 178.896 191.911C177.031 190.691 176.789 189.703 177.663 187.726C179.21 184.227 180.409 180.574 181.825 176.794C185.502 178.342 189.085 179.709 192.533 181.356C194.655 182.369 196.469 182.38 198.713 181.564C208.323 178.071 218.037 174.863 227.674 171.443C230.311 170.508 232.797 169.538 235.225 172.303C237.285 169.091 238.889 165.953 241.081 163.301C246.034 157.31 248.485 150.495 248.436 142.822C248.4 137.178 250.572 133.247 255.95 131.158C257.367 130.607 258.608 129.602 260.253 128.611C260.321 130.093 260.372 131.176 260.44 132.654C265.005 131.159 267.629 127.259 271.952 124.863C271.952 139.981 271.952 154.782 271.952 169.845Z" fill="#181818"/>
<path d="M67.5829 145.295C67.746 151.359 69.2842 156.613 73.046 161.285C75.7157 164.6 77.8045 168.383 80.3769 172.299C83.4296 168.815 86.6054 171.078 89.6832 172.118C99.2072 175.336 108.673 178.725 118.193 181.956C119.146 182.279 120.425 182.266 121.361 181.908C125.502 180.319 129.574 178.548 133.866 176.761C135.449 181.043 137.063 185.178 138.427 189.394C138.601 189.93 137.628 191.131 136.911 191.616C127.636 197.89 118.303 204.078 109.004 210.317C106.829 211.776 104.726 213.343 102.61 214.845C83.3372 202.538 64.0926 190.264 44.8892 177.925C44.2362 177.506 43.6232 176.444 43.6199 175.678C43.5479 158.873 43.565 142.068 43.565 124.958C47.7382 127.104 50.4378 131.055 54.9413 132.762C55.0394 131.235 55.1107 130.124 55.2103 128.573C58.8483 130.751 62.3084 132.734 65.6462 134.905C66.2121 135.273 66.3813 136.43 66.5109 137.257C66.9169 139.849 67.2164 142.458 67.5829 145.295Z" fill="#181818"/>
<path d="M44.0536 228.15C44.0539 213.75 44.0539 199.614 44.0539 185C45.4665 185.917 46.4677 186.557 47.4582 187.212C59.2703 195.029 71.102 202.816 82.8561 210.719C83.9411 211.449 85.1372 212.856 85.2586 214.052C88.0307 241.371 90.6608 268.704 93.3138 296.034C93.3724 296.639 93.389 297.248 93.4405 298.111C92.9367 297.876 92.5507 297.781 92.2734 297.554C76.849 284.91 61.4472 272.239 45.9947 259.63C44.5809 258.477 43.9791 257.308 44.0006 255.448C44.1044 246.437 44.0511 237.424 44.0536 228.15ZM56.9827 210.549C56.9823 208.799 56.9822 207.049 56.9815 205.299C56.9796 200.737 56.2339 199.737 51.4583 198.113C51.4583 198.859 51.4588 199.532 51.4583 200.204C51.4447 217.18 51.657 234.16 51.2667 251.127C51.1623 255.663 53.5835 257.275 56.9825 259.541C56.9825 243.055 56.9825 227.065 56.9827 210.549Z" fill="#181818"/>
<path d="M255.735 195.424C260.895 191.968 265.9 188.62 271.313 185C271.404 186.204 271.508 186.934 271.508 187.663C271.513 210.427 271.522 233.19 271.452 255.954C271.449 256.93 270.976 258.234 270.26 258.83C254.726 271.774 239.126 284.638 223.537 297.515C223.224 297.773 222.877 297.988 222 298.612C222.533 292.97 222.987 287.894 223.495 282.824C225.163 266.194 226.871 249.568 228.518 232.936C229.148 226.579 229.582 220.201 230.294 213.854C230.405 212.859 231.322 211.685 232.202 211.088C239.952 205.839 247.777 200.702 255.735 195.424ZM264.167 246.804C264.167 230.613 264.167 214.422 264.167 198.101C259.891 199.515 258.426 201.781 258.513 206.014C258.854 222.704 258.732 239.404 258.78 256.1C258.783 257.085 258.781 258.07 258.781 259.131C263.302 257.315 265.022 254.346 264.195 249.946C264.036 249.101 264.169 248.202 264.167 246.804Z" fill="#181818"/>
<path d="M155.588 331.549C148.239 326.951 141.089 322.399 133.848 317.998C132.151 316.967 131.782 315.972 132.156 314.02C135.033 299.006 137.795 283.97 140.493 268.924C140.779 267.325 141.489 266.57 142.881 265.915C147.306 263.834 151.624 261.526 156.065 259.481C156.997 259.052 158.454 258.99 159.366 259.414C164.038 261.584 168.649 263.896 173.185 266.34C174.092 266.829 175.003 268.025 175.192 269.03C178.054 284.31 180.818 299.61 183.503 314.923C183.637 315.685 183.089 316.982 182.447 317.399C174.974 322.254 167.382 326.927 159.922 331.8C158.295 332.862 157.106 332.79 155.588 331.549Z" fill="#181818"/>
<path d="M187.364 278.339C186.381 279.072 185.55 279.691 184.34 280.59C183.334 275.592 182.511 270.915 181.387 266.31C181.083 265.068 180.11 263.625 179.026 263C174.49 260.386 169.822 257.99 165.14 255.64C163.635 254.885 162.997 254.043 163.003 252.257C163.052 235.901 162.955 219.544 163.029 203.188C163.033 202.144 163.84 200.745 164.711 200.121C170.553 195.937 170.578 196.011 176.551 200.035C185.684 206.19 194.816 212.347 204.005 218.418C205.6 219.472 206.058 220.497 205.745 222.451C203.281 237.808 201.008 253.197 198.536 268.553C198.332 269.814 197.329 271.207 196.292 272.025C193.483 274.24 190.456 276.178 187.364 278.339Z" fill="#181818"/>
<path d="M195.639 67.1693C197.128 55.7564 198.596 44.5761 200.116 33C201.127 33.39 201.984 33.6805 202.808 34.0449C211.76 38.0021 220.699 41.9897 229.664 45.9167C231.037 46.5178 231.635 47.0794 231.282 48.8188C228.791 61.0654 226.486 73.3496 224.018 85.601C223.789 86.7411 223.11 88.1826 222.191 88.7321C211.623 95.0469 200.968 101.216 190 107.62C191.889 94.0974 193.754 80.7497 195.639 67.1693Z" fill="#181818"/>
<path d="M116.933 102.868C109.056 98.2984 101.313 93.877 93.6583 89.3072C92.6942 88.7316 91.7691 87.4623 91.5471 86.368C88.957 73.6031 86.5044 60.8102 84.0228 48.0234C83.9752 47.7781 84.0169 47.5155 84.0169 47.0355C94.2224 42.4285 104.458 37.8082 115.109 33C118.554 58.0238 121.937 82.6012 125.418 107.883C122.248 106.013 119.672 104.492 116.933 102.868Z" fill="#181818"/>
<path d="M186.11 299.197C185.358 295.103 184.573 291.242 184.015 287.349C183.904 286.572 184.425 285.364 185.057 284.877C189.214 281.673 193.486 278.618 197.712 275.503C200.003 273.815 201.152 271.627 201.646 268.722C204.108 254.236 206.79 239.787 209.44 225.333C209.587 224.535 209.941 223.499 210.545 223.104C215.138 220.102 219.819 217.232 224.985 214C224.416 219.038 223.942 223.579 223.387 228.109C221.193 246.001 218.977 263.89 216.763 281.78C216.172 286.557 215.599 291.336 214.922 296.101C214.8 296.966 214.451 298.113 213.811 298.544C205.696 304.011 197.508 309.37 188.982 314.992C188.011 309.636 187.084 304.527 186.11 299.197Z" fill="#181818"/>
</svg>
